<svg version="1.2" xmlns="http://www.w3.org/2000/svg" viewBox="0 0 1000 1000" width="1000" height="1000"><style>.a{fill:#ccb05c}.b{fill:#c1981c}</style><path class="a" d="m846.8 407.7c0-34.2-23.7-61.9-52.7-61.9h-237.1c-4.1 0-7.4 3.9-7.4 8.7 0 4.8 3.3 8.7 7.4 8.7h237.1c20.8 0 37.8 20 37.8 44.5 0 24.5-17 44.5-37.8 44.5h-237.1c-4.1 0-7.4 3.9-7.4 8.7 0 4.9 3.3 8.8 7.4 8.8h237.1c29 0 52.7-27.8 52.7-62z"/><path class="a" d="m575 432.6h221.9c1.9 0 3.4-2.9 3.4-6.6 0-3.6-1.5-6.5-3.4-6.5h-221.9c-1.9 0-3.5 2.9-3.5 6.5 0 3.7 1.6 6.6 3.5 6.6z"/><path class="a" d="m575 395.9h221.9c1.9 0 3.4-2.9 3.4-6.5 0-3.6-1.5-6.6-3.4-6.6h-221.9c-1.9 0-3.5 3-3.5 6.6 0 3.6 1.6 6.5 3.5 6.5z"/><path class="a" d="m459.3 585.4h-267.1c-21.3 0-38.6-19.9-38.6-44.5 0-24.5 17.3-44.4 38.6-44.4h267.1c4.2 0 7.6-4 7.6-8.8 0-4.8-3.4-8.7-7.6-8.7h-267.1c-29.6 0-53.8 27.8-53.8 61.9 0 34.2 24.2 62 53.8 62h267.1c4.2 0 7.6-3.9 7.6-8.7 0-4.9-3.4-8.8-7.6-8.8z"/><path class="a" d="m449.9 516.1h-268c-2.1 0-3.8 2.9-3.8 6.5 0 3.6 1.7 6.6 3.8 6.6h268c2.1 0 3.8-3 3.8-6.6 0-3.6-1.7-6.5-3.8-6.5z"/><path class="a" d="m449.9 552.7h-268c-2.1 0-3.8 2.9-3.8 6.6 0 3.6 1.7 6.5 3.8 6.5h268c2.1 0 3.8-2.9 3.8-6.5 0-3.7-1.7-6.6-3.8-6.6z"/><path class="b" d="m140 450h33.5v-119.8h-33.5zm134.6-44.2c0-29.9-20.6-45.7-44.6-45.7-26.2 0-45.9 18.9-45.9 45.7 0 26.3 19.2 45.8 49 45.8 16.2 0 27.6-4.8 35.5-14.2l-17.5-19.2c-5.4 4.3-9.5 6.4-16.9 6.4-8.3 0-14-3.5-16.3-10.3h56.3c0.1-2.6 0.4-6 0.4-8.5zm-44.3-20.9c6.8 0 11.7 4.4 13.1 11.8h-26.1c1.3-7.4 6-11.8 13-11.8zm89-24.8c-12.6 0-27 3.5-36.5 10l10.7 24c5.3-4.3 13.5-6.9 20.7-6.9 9.5 0 14.3 3.5 15.3 10.3h-13.5c-25.2 0-37.1 9.5-37.1 26.7 0 15.1 10.3 27.4 30.1 27.4 11.5 0 19.2-4.4 23-13.2v11.6h31.2v-47.5c0-29.4-16.1-42.4-43.9-42.4zm-0.2 69.5c-5 0-8-3-8-7.1 0-4.8 3.1-7.4 10.2-7.4h8.3v6.2c-1.7 5.8-5.9 8.3-10.5 8.3zm90.5-58.4v-9.5h-31.9v88.3h33.5v-39.2c0-14.1 7.1-19.1 17.2-19.1 2.4 0 4.4 0.2 7.4 0.7v-32.3c-11.3 0-20.3 3.7-26.2 11.1zm92-11.1c-9.5 0-18.1 3.3-24.4 10.3v-8.7h-31.9v88.3h33.5v-41.5c0-13.1 5.8-17.8 12.6-17.8 6.1 0 9.9 4.2 9.9 15.2v44.1h33.5v-50.4c0-27.8-14.5-39.5-33.2-39.5z"/><path class="b" d="m534.4 596.7c22 0 38.5-10.1 44.4-26.8l-28.9-14.2c-3.8 8.4-9.2 11.9-15.7 11.9-8.4 0-15.3-6-15.3-17.8 0-11.8 6.9-17.7 15.3-17.7 6.5 0 11.9 3.5 15.7 11.9l28.9-14.2c-5.9-16.7-22.4-26.8-44.4-26.8-31.2 0-53.3 19.3-53.3 46.8 0 27.5 22.1 46.9 53.3 46.9zm93.5-93.7c-14.1 0-30.1 3.7-40.7 10.3l11.9 24.6c6-4.5 15.1-7.1 23.2-7.1 10.5 0 15.8 3.6 17 10.5h-15.1c-28 0-41.2 9.8-41.2 27.3 0 15.5 11.3 28.1 33.5 28.1 12.7 0 21.3-4.5 25.6-13.6v11.9h34.6v-48.5c0-30.1-17.8-43.5-48.8-43.5zm-0.2 71.2c-5.6 0-8.9-3.1-8.9-7.3 0-4.9 3.5-7.6 11.4-7.6h9.2v6.3c-2 6-6.6 8.6-11.7 8.6zm100.6 22.5c31.3 0 46.7-14.3 46.7-30.6 0-36.2-51.9-23.9-51.9-33.4 0-2.1 2.7-4.2 12.3-4.2 7.6 0 16.8 1.4 26.1 6.6l10.2-24.6c-9.6-5-23.6-7.5-36.8-7.5-30.4 0-46.3 13.9-46.3 30.9 0 36.2 52.1 23.8 52.1 33 0 2.7-2.5 4.3-11.6 4.3-10.7 0-23-3-31.5-8.1l-10.3 24.6c9.3 5.3 25.4 9 41 9zm115.6-30.8c-2.5 1.7-5.5 2.5-8.5 2.5-4.4 0-7.7-3.1-7.7-8.7v-22.8h18.5v-27.3h-18.5v-25.2h-37.3v25.2h-12.4v27.3h12.4v23.1c0 24.9 14.5 36.7 39.4 36.7 8.8 0 17.2-1.5 23-4.8z"/></svg>